<?xml version="1.0" encoding="UTF-8"?> <svg xmlns="http://www.w3.org/2000/svg" width="880" height="400" viewBox="0 0 880 400" fill="none"><path d="M280.961 161.349L277.592 155.43C276.648 153.748 274.559 153.21 272.874 154.152C272.605 154.286 272.335 154.488 272.133 154.69L264.384 162.425C263.238 163.568 263.036 165.452 263.979 166.797C266.81 171.102 269.101 175.743 270.718 180.653C281.433 212.401 264.316 246.839 232.509 257.533C226.242 259.618 219.706 260.695 213.102 260.695C203.196 260.695 193.357 258.273 184.597 253.632L197.67 240.516C220.11 248.991 245.111 237.691 253.602 215.293C257.847 204.195 257.241 191.818 252.052 181.124C251.243 179.375 249.154 178.702 247.402 179.51C247.065 179.711 246.728 179.913 246.459 180.182L238.776 187.985C237.9 188.859 237.563 190.07 237.833 191.213L238.507 194.038C241.809 208.029 233.116 222.019 219.099 225.248C212.697 226.727 205.959 225.786 200.231 222.49L196.794 220.539C195.446 219.732 193.694 220.001 192.616 221.077L160.607 253.027C159.259 254.372 159.259 256.592 160.607 257.937C160.742 258.071 160.809 258.139 160.944 258.206L165.661 261.838C179.273 272.331 195.985 277.981 213.169 277.914C256.364 277.846 291.271 242.87 291.271 199.823C291.204 186.303 287.7 173.052 280.961 161.349Z" fill="url(#paint0_linear_90_394)"></path><path d="M260.61 138.076C246.998 127.583 230.286 121.933 213.102 122.001C169.907 122.001 134.933 156.977 135 200.092C135 213.611 138.572 226.929 145.243 238.633L148.612 244.552C149.556 246.233 151.712 246.771 153.329 245.83C153.599 245.695 153.869 245.493 154.071 245.292L161.82 237.557C162.966 236.413 163.168 234.53 162.225 233.185C159.394 228.88 157.103 224.239 155.486 219.329C144.771 187.581 161.888 153.143 193.694 142.448C199.962 140.363 206.498 139.287 213.102 139.287C223.008 139.287 232.847 141.708 241.607 146.349L228.466 159.398C206.026 150.923 181.026 162.156 172.535 184.554C170.648 189.464 169.705 194.643 169.705 199.89C169.705 200.63 169.907 203.858 169.974 204.464C170.513 209.441 171.861 214.284 174.085 218.79C174.893 220.539 176.982 221.212 178.734 220.405C179.071 220.203 179.408 220.001 179.678 219.732L187.495 211.93C188.371 211.055 188.708 209.845 188.438 208.701L187.764 205.876C184.462 191.886 193.155 177.895 207.105 174.667C213.506 173.187 220.245 174.129 225.973 177.424L229.41 179.375C230.758 180.182 232.51 179.913 233.588 178.837L265.597 146.887C266.945 145.542 266.945 143.323 265.597 141.977C265.462 141.843 265.395 141.776 265.26 141.708L260.61 138.076Z" fill="url(#paint1_linear_90_394)"></path><path d="M392.217 221.481C391.004 220.472 389.252 220.539 388.107 221.548C383.053 225.449 377.257 229.014 368.767 229.014C353.2 229.014 340.531 215.898 340.531 199.823C340.531 183.747 353.133 170.496 368.699 170.496C375.438 170.496 382.716 173.321 388.039 178.03C388.646 178.77 389.522 179.106 390.465 179.106C391.274 179.039 392.015 178.635 392.487 177.963L397.541 172.783C398.215 172.178 398.552 171.304 398.552 170.362C398.484 169.42 398.08 168.613 397.406 168.008C388.578 160.34 379.683 156.91 368.564 156.91C344.844 156.91 325.571 176.281 325.571 200.092C325.571 223.835 344.844 243.005 368.564 243.072C379.414 243.207 389.791 239.036 397.541 231.436C398.215 230.763 398.619 229.821 398.552 228.812C398.552 228.073 398.215 227.333 397.608 226.795L392.217 221.481Z" fill="black"></path><path d="M429.078 158.053H421.396C419.644 158.12 418.162 159.533 418.162 161.282V238.633C418.229 240.382 419.644 241.861 421.396 241.929H429.078C430.83 241.861 432.313 240.449 432.313 238.633V161.282C432.313 159.6 430.83 158.12 429.078 158.053Z" fill="black"></path><path d="M519.916 184.083C519.916 169.757 508.056 158.053 493.5 158.053H461.828C460.009 158.053 458.594 159.533 458.594 161.282V238.633C458.594 240.449 460.076 241.861 461.828 241.929H469.376C471.128 241.861 472.61 240.449 472.61 238.633V209.845H488.446L503.676 240.247C504.215 241.256 505.293 241.861 506.506 241.861H515.603C516.749 241.929 517.895 241.323 518.501 240.314C519.108 239.238 519.108 238.027 518.501 236.951L503.069 208.365C513.514 203.724 519.916 194.509 519.916 184.083ZM505.765 184.352C505.765 191.617 499.767 197.805 492.624 197.805H472.947V171.505H492.624C499.7 171.505 505.698 177.357 505.765 184.352Z" fill="black"></path><path d="M602.533 221.481C601.32 220.472 599.568 220.539 598.423 221.548C593.369 225.449 587.573 229.014 579.082 229.014C563.516 229.014 550.847 215.898 550.847 199.823C550.847 183.747 563.449 170.496 579.015 170.496C585.754 170.496 593.032 173.321 598.423 178.03C599.029 178.77 599.973 179.173 600.916 179.106C601.725 179.039 602.466 178.635 602.938 177.963L607.992 172.783C608.666 172.178 609.003 171.304 609.003 170.362C609.003 169.42 608.531 168.546 607.857 168.008C599.029 160.34 590.134 156.91 579.015 156.91C555.295 156.91 536.022 176.281 536.022 200.092C536.022 223.835 555.295 243.005 579.015 243.072C589.864 243.207 600.242 239.036 607.992 231.436C608.666 230.763 609.07 229.821 609.003 228.812C609.003 228.073 608.666 227.333 608.059 226.795L602.533 221.481Z" fill="black"></path><path d="M673.088 228.947H642.629V161.349C642.561 159.6 641.146 158.12 639.394 158.12H631.712C629.893 158.12 628.478 159.6 628.478 161.349V238.7C628.478 240.516 629.96 241.929 631.712 241.996H673.088C674.907 241.996 676.323 240.516 676.323 238.7V232.243C676.39 230.494 674.975 229.014 673.088 228.947C673.155 228.947 673.155 228.947 673.088 228.947Z" fill="black"></path><path d="M742.093 171.169C743.912 171.169 745.327 169.689 745.327 167.941V161.416C745.327 159.6 743.845 158.188 742.093 158.188H695.595C693.776 158.188 692.361 159.667 692.361 161.416V238.767C692.361 240.583 693.843 241.996 695.595 242.063H742.093C743.912 242.063 745.327 240.583 745.327 238.767V232.31C745.327 230.494 743.845 229.082 742.093 229.014H706.377V205.943H736.365C738.184 205.943 739.599 204.464 739.599 202.648V196.123C739.532 194.374 738.117 192.895 736.365 192.827H706.377V171.169H742.093Z" fill="black"></path><defs><linearGradient id="paint0_linear_90_394" x1="185.588" y1="282.914" x2="295.347" y2="172.95" gradientUnits="userSpaceOnUse"><stop stop-color="#B090F5"></stop><stop offset="1" stop-color="#5FBFFF"></stop></linearGradient><linearGradient id="paint1_linear_90_394" x1="130.694" y1="226.825" x2="240.468" y2="116.853" gradientUnits="userSpaceOnUse"><stop stop-color="#68D7FA"></stop><stop offset="1" stop-color="#4EE498"></stop></linearGradient></defs></svg> 