<?xml version="1.0" encoding="UTF-8"?> <svg xmlns="http://www.w3.org/2000/svg" width="880" height="400" viewBox="0 0 880 400" fill="none"><path d="M363.805 236.979C356.887 236.979 350.759 235.597 345.422 232.636C340.085 229.675 335.934 225.727 332.969 220.397C330.004 214.87 328.423 208.553 328.423 201.052C328.423 193.551 330.004 187.234 332.969 181.706C335.934 176.179 340.085 172.034 345.225 169.27C350.364 166.309 356.492 164.927 363.015 164.927C369.735 164.927 375.468 166.309 380.212 169.073C384.956 171.836 388.711 175.587 391.281 180.522C393.851 185.26 395.037 190.59 395.037 196.512C395.037 198.091 395.037 199.473 394.839 200.855C394.839 202.236 394.641 203.223 394.444 204.408H339.69C340.283 211.712 342.655 217.436 346.806 221.384C350.957 225.53 356.492 227.504 363.41 227.504C368.747 227.504 373.096 226.517 376.258 224.543C379.619 222.569 382.386 220.003 384.363 216.647L393.455 221.779C390.688 226.517 386.735 230.267 381.793 233.031C376.851 235.597 370.724 236.979 363.805 236.979ZM362.619 174.797C356.492 174.797 351.55 176.574 347.597 180.127C343.643 183.483 341.271 188.418 340.283 194.538H383.572C383.374 188.221 381.2 183.483 377.444 179.93C373.689 176.377 368.747 174.797 362.619 174.797Z" fill="#C84097"></path><path d="M500.591 236.979V169.27H509.288L511.265 177.561C515.02 169.27 524.706 166.507 530.636 166.507C531.822 166.507 535.973 165.914 542.694 167.296C544.077 167.494 547.635 168.678 548.624 169.27L545.066 178.153C539.531 175.784 535.38 176.179 533.996 176.179C532.613 176.179 531.229 175.982 527.276 176.771C523.915 177.364 521.543 179.14 518.578 181.509C516.009 183.681 515.811 185.062 513.834 188.221C512.451 190.59 511.067 195.327 511.067 200.46V236.979H500.591Z" fill="#C84097"></path><path d="M647.457 155.649C645.48 155.649 643.899 155.057 642.515 153.873C641.329 152.688 640.736 150.912 640.736 148.938C640.736 146.964 641.329 145.384 642.515 144.2C643.701 143.016 645.48 142.226 647.457 142.226C649.434 142.226 651.015 142.818 652.201 144.2C653.387 145.384 654.178 146.964 654.178 148.938C654.178 150.912 653.585 152.491 652.201 153.873C651.015 155.057 649.434 155.649 647.457 155.649Z" fill="#C84097"></path><path d="M652.794 166.309V236.979H642.12V166.309H652.794Z" fill="#C84097"></path><path d="M560.682 236.979V167.691H570.763L571.553 178.548C574.123 174.205 577.483 171.047 581.634 169.27C585.983 167.296 590.529 166.309 595.471 166.309C600.61 166.309 605.354 167.296 609.505 169.27C613.656 171.047 617.017 174.008 619.586 177.956C622.156 181.904 623.54 186.839 623.54 192.761V237.177H612.075V196.512C612.075 188.813 610.296 183.483 606.936 180.522C603.575 177.561 599.424 175.982 594.483 175.982C591.122 175.982 587.564 176.771 584.204 178.351C580.844 179.93 577.879 182.496 575.704 186.049C573.53 189.603 572.344 194.34 572.344 200.262V237.177H560.682V236.979Z" fill="#C84097"></path><path d="M674.142 236.979V167.691H684.223L685.014 178.548C687.583 174.205 690.944 171.047 695.095 169.27C699.443 167.296 703.99 166.309 708.931 166.309C714.071 166.309 718.815 167.296 722.966 169.27C727.117 171.047 730.477 174.008 733.047 177.956C735.616 181.904 737 186.839 737 192.761V237.177H725.535V196.512C725.535 188.813 723.756 183.483 720.396 180.522C717.036 177.561 712.885 175.982 707.943 175.982C704.583 175.982 701.025 176.771 697.664 178.351C694.304 179.93 691.339 182.496 688.967 186.049C686.793 189.603 685.607 194.34 685.607 200.262V237.177H674.142V236.979Z" fill="#C84097"></path><path d="M480.627 167.888V236.387H470.941V223.556C464.418 232.636 455.918 237.177 445.244 237.177C438.721 237.177 432.791 235.597 427.454 232.636C422.117 229.478 417.769 225.135 414.606 219.805C411.443 214.278 410.06 208.553 410.06 202.039C410.06 195.525 411.641 189.603 414.606 184.273C417.769 178.745 422.117 174.6 427.454 171.442C432.791 168.283 438.721 166.704 445.244 166.704C451.965 166.704 457.302 168.086 461.453 170.849C465.802 173.613 468.964 176.574 470.941 179.732V168.283H480.627V167.888ZM445.047 227.504C449.791 227.504 453.942 226.319 457.895 224.148C461.848 221.779 464.813 218.621 467.185 214.673C469.557 210.725 470.743 206.382 470.743 201.842C470.743 197.104 469.557 192.761 467.185 189.01C465.011 185.062 461.848 181.904 457.895 179.535C453.942 177.166 449.593 175.982 445.047 175.982C440.303 175.982 435.954 177.166 432.001 179.535C428.047 181.706 424.885 184.865 422.513 189.01C420.338 192.958 419.152 197.301 419.152 201.842C419.152 206.579 420.338 210.922 422.513 214.673C424.885 218.621 428.047 221.779 432.001 224.148C436.152 226.319 440.5 227.504 445.047 227.504Z" fill="#C84097"></path><path fill-rule="evenodd" clip-rule="evenodd" d="M215.358 137.094C180.371 137.094 151.907 165.519 151.907 200.46C151.907 235.4 180.371 263.826 215.358 263.826C250.345 263.826 278.809 235.4 278.809 200.46C278.809 165.322 250.542 137.094 215.358 137.094ZM144 200.262C144 160.979 176.022 129 215.358 129C254.891 129 286.715 160.979 286.715 200.262C286.715 239.743 254.693 271.525 215.358 271.525C176.022 271.722 144 239.743 144 200.262Z" fill="#C84097"></path><path fill-rule="evenodd" clip-rule="evenodd" d="M215.358 182.891C193.022 182.891 174.836 201.052 174.836 223.358C174.836 245.665 193.022 263.826 215.358 263.826C237.694 263.826 255.88 245.665 255.88 223.358C255.88 201.052 237.892 182.891 215.358 182.891ZM166.93 223.161C166.93 196.314 188.673 174.797 215.358 174.797C242.043 174.797 263.786 196.512 263.786 223.161C263.786 249.81 242.043 271.525 215.358 271.525C188.673 271.525 166.93 250.008 166.93 223.161Z" fill="#C84097"></path><path fill-rule="evenodd" clip-rule="evenodd" d="M216.148 224.543C205.277 224.543 196.579 233.229 196.579 244.086C196.579 254.943 205.277 263.629 216.148 263.629C227.02 263.629 235.717 254.943 235.717 244.086C235.717 233.426 227.02 224.543 216.148 224.543ZM188.475 244.086C188.475 228.886 200.928 216.449 216.148 216.449C231.369 216.449 243.822 228.886 243.822 244.086C243.822 259.286 231.369 271.722 216.148 271.722C200.928 271.722 188.475 259.286 188.475 244.086Z" fill="#C84097"></path></svg> 