<?xml version="1.0" encoding="UTF-8"?> <svg xmlns="http://www.w3.org/2000/svg" width="880" height="400" viewBox="0 0 880 400" fill="none"><path d="M204.311 142.955V191.213H160.013V142.955H139V257.639H160.013V211.084H204.311V257.639H225.325V142.955H204.311ZM292.34 220.735C292.34 230.387 284.389 238.335 274.734 238.335C265.079 238.335 257.128 230.387 257.128 220.735V171.342H237.251V220.735C237.251 241.174 253.721 258.206 274.734 258.206C295.179 258.206 312.217 241.742 312.217 220.735V171.342H292.34V220.735ZM440 176.452C440 166.232 446.815 163.394 454.198 163.394C459.877 163.394 467.828 167.935 472.94 173.045L485.434 157.716C479.187 148.632 466.125 142.955 455.334 142.955C433.753 142.955 417.851 155.445 417.851 176.452C417.851 215.626 465.557 203.135 465.557 224.71C465.557 231.523 459.309 237.2 451.358 237.2C439.432 237.2 436.025 231.523 430.345 225.277L416.147 240.039C425.234 251.394 436.592 257.071 450.223 257.071C470.668 257.071 487.138 244.013 487.138 224.142C487.138 181.561 440 195.187 440 176.452ZM734.185 239.471C722.259 239.471 718.851 234.361 718.851 226.413V191.781H737.025V174.181H718.851V151.471L698.406 160.555V230.955C698.406 249.123 710.9 258.206 727.938 258.206C730.777 258.206 733.049 258.206 735.889 257.639L741 239.471C738.728 238.903 736.457 239.471 734.185 239.471ZM367.874 171.91C358.219 171.91 351.404 174.748 344.589 181.561V143.523H324.711V213.355C324.711 239.471 343.453 257.639 365.034 257.639C388.887 257.639 409.332 239.471 409.332 214.49C409.332 190.645 390.591 171.91 367.874 171.91ZM367.874 237.768C355.379 237.768 345.157 227.548 345.157 215.058C345.157 202.568 355.379 192.348 367.874 192.348C380.368 192.348 390.591 202.568 390.591 215.058C390.591 227.548 380.368 237.768 367.874 237.768ZM584.821 213.923C584.821 189.51 563.808 170.774 540.523 170.774C518.941 170.774 500.2 188.942 500.2 215.058V285.458H520.077V247.419C526.892 253.665 533.708 257.071 543.362 257.071C565.511 256.503 584.821 238.335 584.821 213.923ZM565.511 213.355C565.511 225.845 555.289 236.065 542.794 236.065C530.3 236.065 520.077 225.845 520.077 213.355C520.077 200.865 530.3 190.645 542.794 190.645C555.857 191.213 565.511 200.865 565.511 213.355Z" fill="#33475B"></path><path d="M648.996 170.206V149.768C654.675 147.497 658.083 141.819 658.083 136.142V135.574C658.083 127.058 651.268 120.245 642.749 120.245H642.181C633.662 120.245 626.847 127.058 626.847 135.574V136.142C626.847 142.387 630.255 147.497 635.934 149.768V169.639C628.551 170.774 621.168 174.181 614.921 178.723L559.832 136.142C560.4 135.006 560.4 133.303 560.4 131.6C560.4 121.948 552.449 114 542.794 114C533.139 114 525.188 121.948 525.188 131.6C525.188 141.252 533.139 149.2 542.794 149.2C545.634 149.2 548.473 148.632 551.313 146.929L605.266 188.942C595.043 203.703 595.611 223.574 605.834 238.335L589.364 254.8C588.228 254.232 586.524 254.232 585.388 254.232C577.438 254.232 571.19 260.477 571.19 268.426C571.19 276.374 577.438 282.619 585.388 282.619C593.339 282.619 599.587 276.374 599.587 268.426C599.587 267.29 599.587 265.587 599.019 264.452L615.488 247.987C634.798 262.748 662.058 259.342 676.824 240.039C691.59 220.735 688.183 193.484 668.873 178.723C663.194 174.181 656.379 170.774 648.996 170.206ZM642.181 236.065C629.687 236.632 619.464 226.413 618.896 213.923C618.328 201.432 628.551 191.213 641.045 190.645C641.613 190.645 641.613 190.645 642.181 190.645C654.675 191.213 664.33 201.432 663.762 213.923C663.762 225.845 654.107 235.497 642.181 236.065Z" fill="#FF7A59"></path></svg> 