<?xml version="1.0" encoding="UTF-8"?> <svg xmlns="http://www.w3.org/2000/svg" width="880" height="400" viewBox="0 0 880 400" fill="none"><path d="M236.182 187.191V230.876H225.362V190.079C225.362 186.288 224.641 183.4 223.379 181.595C221.936 179.789 219.952 178.887 216.887 178.887C214.542 178.887 212.198 179.609 209.673 180.873C207.149 182.136 204.624 184.122 202.099 186.649V231.057H191.64V170.763H201.378V178.706C204.804 175.457 208.05 173.11 211.116 172.027C214.182 170.763 217.067 170.041 220.133 170.041C225.182 170.041 229.149 171.486 231.854 174.554C234.74 177.443 236.182 181.595 236.182 187.191ZM270.987 147.838V156.683L266.478 156.502C265.396 156.502 264.675 156.322 264.134 156.322C261.609 156.322 259.806 156.863 258.904 158.127C257.822 159.391 257.462 161.196 257.462 163.904V170.944H270.806V179.97H257.462V231.237H247.002V162.099C247.002 157.044 248.265 153.253 250.97 150.726C253.494 148.199 257.281 146.754 262.331 146.754C263.413 146.754 264.675 146.754 265.757 146.935C266.839 147.296 268.282 147.476 270.987 147.838ZM298.037 169.68C305.791 169.68 312.103 172.388 316.25 177.623C320.578 182.858 322.742 190.44 322.742 200.188C322.742 209.936 320.398 217.518 316.25 222.753C312.103 227.988 305.791 230.696 298.037 230.696C290.282 230.696 283.971 227.988 279.823 222.753C275.495 217.518 273.331 209.936 273.331 200.188C273.331 190.621 275.675 183.039 279.823 177.623C283.971 172.388 290.102 169.68 298.037 169.68ZM298.037 178.887C293.528 178.887 290.102 180.692 287.577 184.122C285.233 187.552 284.151 192.967 284.151 200.008C284.151 207.048 285.413 212.283 287.577 216.074C289.922 219.504 293.348 221.67 298.037 221.67C302.545 221.67 305.971 219.865 308.316 216.074C310.84 212.644 311.742 207.048 311.742 200.188C311.742 193.148 310.48 187.913 308.316 184.122C306.152 180.692 302.545 178.887 298.037 178.887ZM391.81 147.296H402.269V231.057H391.81V147.296Z" fill="black"></path><path d="M170 147.296H180.459V231.057H170V147.296ZM343.12 231.057V224.558C344.923 226.364 346.546 227.808 348.891 228.891C351.596 230.154 354.661 230.877 357.727 230.877C365.301 230.877 371.072 228.169 375.039 222.934C379.367 217.338 381.351 209.936 381.351 200.369C381.351 191.162 379.006 183.761 374.859 178.345C370.531 172.749 364.94 170.403 357.547 170.403C354.481 170.403 351.956 171.125 349.612 172.208C347.087 173.471 344.923 175.457 343.3 177.804V147.296H332.841V231.057H343.12ZM366.744 216.254C364.219 220.045 360.793 221.851 356.284 221.851C353.76 221.851 351.596 221.309 349.612 220.045C347.628 218.782 345.284 216.977 343.661 214.449V185.927C345.645 183.58 347.628 181.595 349.612 180.692C351.596 179.428 353.94 178.887 356.104 178.887C360.793 178.887 364.58 180.692 367.104 184.483C369.629 188.274 370.891 193.69 370.891 200.73C370.17 207.409 369.268 212.825 366.744 216.254ZM437.434 169.68C445.189 169.68 451.5 172.388 455.648 177.623C459.976 182.858 462.14 190.44 462.14 200.188C462.14 209.936 459.796 217.518 455.648 222.753C451.32 227.988 445.189 230.696 437.434 230.696C429.68 230.696 423.368 227.988 419.221 222.753C414.893 217.518 412.729 209.936 412.729 200.188C412.729 190.621 415.073 183.039 419.221 177.623C423.368 172.388 429.68 169.68 437.434 169.68ZM437.434 178.887C432.926 178.887 429.5 180.692 426.975 184.122C424.631 187.552 423.549 192.967 423.549 200.008C423.549 207.048 424.811 212.283 426.975 216.074C429.319 219.504 432.746 221.67 437.434 221.67C441.943 221.67 445.369 219.865 447.713 216.074C450.238 212.644 451.14 207.048 451.14 200.188C451.14 193.148 449.877 187.913 447.713 184.122C445.369 180.692 441.943 178.887 437.434 178.887ZM483.059 198.744L465.747 169.861H478.009L489.01 189.899L500.371 169.861H511.912L495.141 198.744L514.256 230.696H501.813L488.829 206.867L475.845 230.696H464.304L483.059 198.744Z" fill="black"></path><path d="M573.225 187.371L542.929 164.626C542.028 163.723 541.667 163.001 541.667 162.46C541.667 161.557 542.028 160.835 542.929 160.293L573.225 137.548C575.389 135.923 579.537 135.923 582.062 137.548L612.358 160.293C613.259 161.196 613.62 161.918 613.62 162.46C613.62 163.362 613.259 164.084 612.358 164.626L582.062 187.371C579.537 188.996 575.389 188.996 573.225 187.371Z" fill="#95C840"></path><path d="M573.225 260.482L542.929 237.736C542.028 236.834 541.667 236.112 541.667 235.57C541.667 234.667 542.028 233.945 542.929 233.404L573.225 210.658C575.389 209.034 579.537 209.034 582.062 210.658L612.358 233.584C613.259 234.487 613.62 235.209 613.62 235.751C613.62 236.653 613.259 237.375 612.358 237.917L582.062 260.662C579.537 262.648 575.389 262.648 573.225 260.482Z" fill="#59C9E6"></path><path d="M621.915 151.268L591.619 128.522C590.718 127.619 590.357 126.897 590.357 125.995C590.357 125.092 590.718 124.37 591.619 123.829L621.915 101.264C623.178 100.361 624.801 100 626.243 100C627.686 100 629.309 100.361 630.571 101.264L660.867 124.009C661.769 124.912 662.13 125.634 662.13 126.175C662.13 127.078 661.769 127.8 660.867 128.703L630.571 151.448C629.309 152.351 627.686 152.712 626.243 152.712C624.801 152.712 623.358 152.17 621.915 151.268Z" fill="#EBE719"></path><path d="M621.915 224.378L591.619 201.632C590.718 200.73 590.357 200.008 590.357 199.466C590.357 198.564 590.718 197.841 591.619 197.3L621.915 174.554C623.178 173.652 624.801 173.291 626.243 173.291C627.686 173.291 629.309 173.652 630.571 174.554L661.048 197.48C661.949 198.383 662.31 199.105 662.31 199.647C662.31 200.549 661.949 201.271 661.048 201.813L630.752 224.558C629.489 225.461 627.866 225.822 626.424 225.822C624.981 225.822 623.358 225.28 621.915 224.378Z" fill="#50C0AF"></path><path d="M621.915 298.752L591.619 276.006C590.718 275.104 590.357 274.382 590.357 273.479C590.357 272.577 590.718 271.854 591.619 271.313L621.915 248.567C623.178 247.665 624.801 247.304 626.243 247.304C627.686 247.304 629.309 247.665 630.571 248.567L660.867 271.313C661.769 272.216 662.13 272.938 662.13 273.479C662.13 274.382 661.769 275.104 660.867 276.006L630.571 298.752C629.309 299.655 627.686 300.016 626.243 300.016C624.801 300.016 623.358 299.655 621.915 298.752Z" fill="#0377BB"></path><path d="M670.605 187.371L640.309 164.626C639.408 163.723 639.047 163.001 639.047 162.46C639.047 161.557 639.408 160.835 640.309 160.293L670.605 137.548C672.769 135.923 676.917 135.923 679.442 137.548L709.737 160.293C710.639 161.196 711 161.918 711 162.46C711 163.362 710.639 164.084 709.737 164.626L679.442 187.371C677.458 188.996 673.13 188.996 670.605 187.371Z" fill="#78BC43"></path><path d="M670.605 260.482L640.309 237.736C639.408 236.834 639.047 236.112 639.047 235.57C639.047 234.667 639.408 233.945 640.309 233.404L670.605 210.658C672.769 209.034 676.917 209.034 679.442 210.658L709.737 233.584C710.639 234.487 711 235.209 711 235.751C711 236.653 710.639 237.375 709.737 237.917L679.442 260.662C677.458 262.648 673.13 262.648 670.605 260.482Z" fill="#109FDA"></path></svg> 