<?xml version="1.0" encoding="UTF-8"?> <svg xmlns="http://www.w3.org/2000/svg" width="880" height="400" viewBox="0 0 880 400" fill="none"><path d="M589.74 213.881H586.928V262.442H552V141.483L586.928 87V199.964C593.884 191.525 617.268 159.101 617.268 159.101H660.484L619.488 202.332L661.816 262.59H617.712L589.74 213.881ZM492.356 206.034L506.712 159.397H541.344L500.792 262.145C488.656 293.088 471.34 313.964 445.588 313.964C435.672 313.964 427.236 311.447 422.944 308.93L436.856 287.462C438.928 287.758 441.148 287.758 443.22 287.758C455.208 287.758 464.088 276.21 469.86 262.442L427.236 159.249H466.456L481.7 205.442C484.66 214.177 486.88 230.906 486.88 230.906C486.88 230.906 489.544 214.769 492.356 206.034ZM386.684 203.665C386.684 190.192 380.764 183.826 369.368 183.826C363.744 183.826 357.972 185.455 353.976 187.823V262.59H319.048V160.434L353.236 157.621L352.348 174.351H353.532C360.932 164.431 373.364 156.881 388.312 156.881C406.22 156.881 421.76 167.984 421.76 194.19V262.59H386.684V203.665ZM219 257.26L222.108 233.423C233.06 238.753 245.344 241.418 255.704 241.418C263.252 241.418 268.284 238.901 268.284 234.312C268.284 221.283 221.072 224.392 221.072 190.192C221.072 168.429 241.052 156.881 266.212 156.881C278.792 156.881 291.668 160.286 299.956 163.247L296.552 186.639C287.82 183.234 275.832 180.125 265.916 180.125C259.848 180.125 254.816 182.345 254.816 186.195C254.816 199.075 302.916 196.558 302.916 229.87C302.916 252.078 283.232 264.81 256.148 264.81C241.496 264.81 229.36 262.145 219 257.26Z" fill="black"></path></svg> 