<?xml version="1.0" encoding="UTF-8"?> <svg xmlns="http://www.w3.org/2000/svg" width="880" height="400" viewBox="0 0 880 400" fill="none"><path d="M340.145 185.125L303.217 206.056C303.217 198.575 303.217 191.835 303.217 185.095C303.182 184.441 303.347 183.793 303.691 183.236C304.034 182.679 304.54 182.241 305.14 181.98C323.255 171.464 341.33 160.942 359.365 150.413C360.837 151.584 360.286 152.846 360.286 153.888C360.286 184.754 360.286 215.61 360.397 246.467C360.397 249.561 359.395 251.194 356.761 252.686C329.472 268.009 302.233 283.432 275.044 298.956C274.061 299.645 272.889 300.016 271.688 300.016C270.487 300.016 269.316 299.645 268.333 298.956C240.997 283.372 213.621 267.876 186.205 252.466C185.162 252 184.293 251.217 183.723 250.227C183.152 249.238 182.91 248.093 183.03 246.958C183.13 215.577 183.13 184.217 183.03 152.876C182.944 151.832 183.188 150.788 183.727 149.889C184.266 148.991 185.073 148.284 186.035 147.869C213.745 132.232 241.414 116.539 269.044 100.788C269.854 100.257 270.806 99.983 271.774 100.001C272.742 100.019 273.683 100.328 274.473 100.888C296.207 113.257 317.89 125.535 340.275 138.244C333.655 142 327.475 145.455 321.356 149.011C319.232 150.242 317.84 148.7 316.348 147.869C302.617 140.127 288.825 132.386 275.174 124.444C272.7 123.012 270.917 122.931 268.433 124.354C247.761 136.191 227.032 147.922 206.246 159.546C203.572 161.039 202.991 162.711 203.001 165.445C203.128 188.3 203.175 211.154 203.141 234.008C203.141 237.313 203.973 239.336 207.148 241.099C227.68 252.449 248.102 264.01 268.413 275.781C270.997 277.273 272.78 277.053 275.154 275.701C295.679 263.976 316.238 252.292 336.83 240.648C338.573 239.647 340.225 238.966 340.205 236.332C340.085 219.556 340.145 202.741 340.145 185.125Z" fill="#3C4B5E"></path><path d="M607.492 217.804C607.492 225.305 607.492 232.826 607.492 240.318C607.492 242.391 607.492 244.213 605.098 245.185C583.585 253.778 561.791 256.662 540.157 246.297C519.925 236.612 509.439 214.98 512.804 192.125C516.17 169.271 532.575 152.346 555.541 148.58C572.407 145.806 588.372 148.079 602.935 157.674C606.03 159.677 606.941 161.209 603.706 164.223C599.92 167.699 596.745 171.845 593.39 175.771C591.958 177.453 591.066 177.714 589.033 176.131C576.093 166.116 559.207 166.357 548.23 176.402C537.252 186.447 535.069 205.856 543.522 218.765C550.533 229.491 561.3 232.165 573.219 231.354C584.797 230.573 584.787 230.353 584.787 218.875C584.787 210.583 584.787 210.583 576.424 210.583C565.527 210.583 565.527 210.583 565.527 199.857C565.527 191.014 565.527 191.014 574.42 191.014C583.605 191.014 592.789 191.314 601.943 190.893C606.771 190.673 607.802 192.386 607.582 196.792C607.242 203.773 607.492 210.793 607.492 217.804Z" fill="#3C4B5E"></path><path d="M409.022 150.222C417.145 150.222 424.977 150.413 432.799 150.132C436.104 150.022 436.565 152.065 437.296 154.268C444.047 174.632 450.811 194.996 457.588 215.36C458.159 217.043 458.239 219.006 460.162 220.668C464.308 208.089 468.385 195.731 472.471 183.372C475.766 173.427 479.112 163.492 482.367 153.537C482.968 151.695 483.418 150.172 485.912 150.202C493.925 150.323 501.867 150.202 510.5 150.202C507.015 159.096 503.77 167.418 500.485 175.741C491.24 199.266 481.916 222.811 472.852 246.347C471.66 249.431 470.158 250.353 467.053 250.212C461.394 249.982 455.715 250.092 450.026 250.212C448.023 250.212 446.661 249.842 445.83 247.669C433.571 215.52 421.268 183.385 408.922 151.264C408.914 150.914 408.948 150.564 409.022 150.222V150.222Z" fill="#3C4B5E"></path><path d="M656.308 252.666C643.859 252.225 632.371 248.961 622.325 241.269C619.661 239.266 619.14 237.664 621.995 235.18C625.751 231.869 629.3 228.331 632.621 224.584C634.574 222.401 635.716 222.771 637.699 224.584C643.979 230.343 651.38 233.357 660.054 232.596C666.274 232.025 670.07 229.011 670.951 224.113C671.872 218.795 669.869 215.49 663.74 212.516C655.938 208.72 647.314 207.168 639.442 203.502C619.01 193.888 620.622 166.917 634.795 156.432C644.75 149.071 656.008 146.907 667.916 147.869C677.283 148.554 686.265 151.873 693.827 157.443C696.19 159.176 697.082 160.448 694.297 162.551C693.041 163.633 691.879 164.819 690.822 166.096C688.058 168.991 685.814 172.906 682.429 174.539C678.423 176.542 676.419 170.843 672.734 169.621C667.175 167.769 661.797 166.737 656.128 168.55C652.172 169.822 649.427 172.356 648.927 176.622C648.396 181.069 650.8 184.033 654.676 185.575C660.685 187.979 666.865 190.032 672.964 192.225C673.745 192.506 674.557 192.716 675.328 193.007C689.35 198.325 696.1 207.268 695.98 220.378C695.86 234.218 688.088 244.884 674.527 249.742C668.683 251.818 662.508 252.809 656.308 252.666V252.666Z" fill="#3C4B5E"></path><path d="M219.167 171.655C226.087 175.811 232.287 179.667 238.567 183.282C240.45 184.384 240.119 186.026 240.119 187.639C240.119 196.141 240.249 204.664 240.119 213.147C240.039 216.342 240.93 218.335 243.835 219.987C251.507 224.344 259.009 229.001 266.48 233.698C269.004 235.28 271.047 235.54 273.722 233.848C281.604 228.84 289.666 224.153 297.639 219.316C298.921 218.535 300.503 217.694 300.173 215.941C299.412 211.845 302.276 210.393 305.01 208.77L321.246 199.196C321.246 209.752 321.246 219.486 321.246 229.241C321.246 230.994 319.773 231.745 318.491 232.516C303.368 241.63 288.214 250.683 273.151 259.887C271.007 261.199 269.585 261.269 267.402 259.887C252.378 250.663 237.195 241.62 222.071 232.516C220.629 231.645 219.197 230.803 219.197 228.78C219.177 210.022 219.167 191.254 219.167 171.655Z" fill="#AEAEAE"></path></svg> 